<svg xmlns="http://www.w3.org/2000/svg" viewBox="0 0 449.14 281.83"><defs><style>.cls-1{fill:#005ca9;}.cls-2{fill:#e30613;}.cls-3{fill:#001f47;}</style></defs><title>Element 1logo_en</title><g id="Ebene_2" data-name="Ebene 2"><g id="Ebene_1-2" data-name="Ebene 1"><path class="cls-1" d="M402.16,138l.8-.22v7.94c-68.44,18.55-117.85,13.44-186.18.18-59-11.45-103.89-19.82-163-.1v-8.08c59.23-19.25,105.43-10.78,164.49.68C285.05,151.31,334.11,156.7,402.16,138Z"/><path class="cls-2" d="M302.82,140.24l-.27-25.1a14,14,0,0,0-28,0l-.25,22.75c-15.05-1.75-29.67-4.19-44.06-6.77,6.18-16.66,9.3-30,10.6-48.88h95.43c1.37,19.72,5.9,38.3,12.76,56.78A317.87,317.87,0,0,1,302.82,140.24Z"/><polygon class="cls-2" points="260.27 26.78 255.2 26.78 252.67 31.07 250.13 26.78 245.07 26.78 247.6 22.5 245.07 18.21 250.13 18.21 252.67 13.93 255.2 18.21 260.27 18.21 257.74 22.5 260.27 26.78"/><polygon class="cls-2" points="332.12 26.78 327.05 26.78 324.51 31.07 321.98 26.78 316.91 26.78 319.45 22.5 316.91 18.21 321.98 18.21 324.51 13.93 327.05 18.21 332.12 18.21 329.58 22.5 332.12 26.78"/><path class="cls-2" d="M275.56,28.61v-.43a12.75,12.75,0,0,1,10-12.33V10.37h-4.71V5.26h4.71V0h6V5.26h4.71v5.11h-4.71v5.46c6.11,1.32,9.7,6.67,10,12.78h5v6.54H301v35h12.23v-35h22.59v35h7.11v6.75H234.26V70.16h7.12v-35H264v35h12.23v-35h-5.66V28.61Z"/><path class="cls-3" d="M0,262.68V189.11H16.81q10.29,0,13.4,4t3.11,16.81q0,12.84-3.11,16.81t-13.4,4H10.19v32Zm10.19-65v24.46h5.3q5.2,0,6.42-1.94t1.22-10.29q0-8.35-1.22-10.29t-6.42-1.94Z"/><path class="cls-3" d="M36.78,250.55V224.67q0-6.52,3.57-10.14t10-3.62Q64,210.92,64,223.65v25.88q0,6.52-3.57,10.14t-10,3.62Q36.78,263.29,36.78,250.55Zm9.58-26.49v26.08q0,6.42,4.08,6.42t4-6.42V224.06q0-6.42-4-6.42T46.36,224.06Z"/><path class="cls-3" d="M70.82,262.68V211.53h9v5.3H80a11.68,11.68,0,0,1,3.31-4.74,9.31,9.31,0,0,1,5.25-1.17v9.58q-8.15,0-8.15,6.62v35.56Z"/><path class="cls-3" d="M93.44,255.85v-37.6H88.65v-6.73h4.79v-9.68l9.58-3.36v13h5.91v6.73H103v33.12q0,4.58,4.58,4.59a8,8,0,0,0,2.45-.31v6.72q-3.36.31-6.22.31Q93.44,262.68,93.44,255.85Z"/><path class="cls-3" d="M131.24,250.55V224.67q0-6.52,3.57-10.14t10-3.62q13.65,0,13.65,12.74v25.88q0,6.52-3.57,10.14t-10,3.62Q131.24,263.29,131.24,250.55Zm9.58-26.49v26.08q0,6.42,4.08,6.42t4-6.42V224.06q0-6.42-4-6.42T140.82,224.06Z"/><path class="cls-3" d="M167.1,262.68V218.25h-4.79v-6.73h4.79v-12q0-5.71,2.45-8t9.78-2.34h3.26v7.34h-1.73q-4.18,0-4.18,4.38v10.7h5.91v6.73h-5.91v44.43Z"/><path class="cls-3" d="M205.31,262.68V189.11H215.5V220.7h13.55V189.11h10.19v73.57H229.05V229.26H215.5v33.42Z"/><path class="cls-3" d="M246.38,226.61V222q0-11.1,13.65-11.11t13.55,12.43v39.33h-9v-5.3a20.41,20.41,0,0,0-1.43,1.63,19.58,19.58,0,0,1-1.32,1.53,9.27,9.27,0,0,1-6.83,2.75q-4.79,0-6.83-2.45-2.55-3.06-2.55-11.51a68.12,68.12,0,0,1,.31-8.15,12.5,12.5,0,0,1,3.16-7.23,8.06,8.06,0,0,1,4.18-2.45q2.85-.71,10.7-.71v-8.25q0-4.89-4-4.89T256,221.92v4.69ZM264,237.51h-3.06q-3.36,0-4.53,2.19t-1.17,8.3q0,7.74,2.14,8.36a5.27,5.27,0,0,0,1.63.2q5,0,5-5.91Z"/><path class="cls-3" d="M281.22,262.68V211.53h9v4.28h.2q2.85-4.89,9.07-4.89a9.42,9.42,0,0,1,8.36,4.89,9.35,9.35,0,0,1,8.46-4.89q9.37,0,9.38,10.09v41.67h-9.58V222.84q0-4.58-3.67-4.58-4.18,0-4.18,5.4v39h-9.58V222.84q0-4.58-3.67-4.58-4.18,0-4.18,5.4v39Z"/><path class="cls-3" d="M333.29,262.68V189.11h9.58v26.08h.2q2.44-4.28,8.46-4.28,9,0,9,11.82v28.73q0,11.82-9,11.82a10.76,10.76,0,0,1-9.07-4.28h-.2v3.67Zm17.63-12.84V224.57q0-6.93-3.67-6.93-4.38,0-4.38,8.35v25.78q0,5.4,3.87,5.4Q350.92,257.18,350.92,249.84Z"/><path class="cls-3" d="M394.33,211.53v51.15h-9V258.4h-.2a9.69,9.69,0,0,1-8.86,4.89q-9,0-9-10.09V211.53h9.58v39.84q0,4.58,3.67,4.59,4.18,0,4.18-5.4v-39Z"/><path class="cls-3" d="M401.25,262.68V211.53h9v5.3h.2a11.68,11.68,0,0,1,3.31-4.74,9.31,9.31,0,0,1,5.25-1.17v9.58q-8.15,0-8.15,6.62v35.56Z"/><path class="cls-3" d="M422.85,271.64v-4.28h9.58v4q0,4.38,3.57,4.38t3.57-5.81V257.18h-.2q-2.75,4.28-8.46,4.28-9,0-9-11.82v-26.9q0-11.82,9-11.82,5.6,0,9.07,5.2h.2v-4.58h9v56.14q0,14.16-13.76,14.16Q422.85,281.83,422.85,271.64Zm8.66-48.71v24.46q0,7.34,4.18,7.34,3.87,0,3.87-5.4V223q0-5.4-4.28-5.4Q431.52,217.64,431.52,222.94Z"/></g></g></svg>